<?xml version="1.0" encoding="UTF-8" standalone="no"?>
<!-- Created with Inkscape (http://www.inkscape.org/) -->

<svg
   version="1.1"
   id="svg2"
   width="1693.3333"
   height="1693.3333"
   viewBox="0 0 1693.3333 1693.3333"
   sodipodi:docname="3133040_37193.eps"
   xmlns:inkscape="http://www.inkscape.org/namespaces/inkscape"
   xmlns:sodipodi="http://sodipodi.sourceforge.net/DTD/sodipodi-0.dtd"
   xmlns="http://www.w3.org/2000/svg"
   xmlns:svg="http://www.w3.org/2000/svg">
  <defs
     id="defs6" />
  <sodipodi:namedview
     id="namedview4"
     pagecolor="#ffffff"
     bordercolor="#000000"
     borderopacity="0.25"
     inkscape:showpageshadow="2"
     inkscape:pageopacity="0.0"
     inkscape:pagecheckerboard="0"
     inkscape:deskcolor="#d1d1d1" />
  <g
     id="g8"
     inkscape:groupmode="layer"
     inkscape:label="ink_ext_XXXXXX"
     transform="matrix(1.3333333,0,0,-1.3333333,0,1693.3333)">
    <g
       id="g10"
       transform="scale(0.1)">
      <path
         d="M 4.58594,-4.59766 H 12704.586 V 12695.402 H 4.58594 Z"
         style="fill:#D6DBDC;fill-opacity:1;fill-rule:nonzero;stroke:none"
         id="path12" />
      <path
         d="m 8779.17,1010.5 c -313.71,0 -625.55,9.6 -917.49,11.6 -800.92,5.3 -1601.84,10.6 -2402.75,16 -40.45,0.2 -81.02,0.4 -121.74,0.4 -184.82,0 -372.25,-2.5 -561,-5 -188.82,-2.5 -378.9,-5 -569.2,-5 -606.49,0 -1214.34,25.4 -1783.49,157.2 -247.04,57.2 -357.83,219.6 -154.33,375.2 180,137.7 501.27,85.6 636.23,266.1 -494.1,133.1 28.38,394.6 258.29,485 244.98,96.4 507.62,156.7 774.19,194.9 l 76.06,-988.8 h 192.05 l 150.93,1032.7 c 77.44,5.9 155,11.4 232.51,16.5 l -66.04,-891.5 205.99,-41.2 264.91,956.4 c 655.32,33.2 1312.72,42.7 1970.24,42.7 674.43,0 1348.97,-10 2021.46,-15.1 142.88,-1.1 289.17,-2.7 423.02,-45.1 225.3,-71.4 210.63,-257.4 384.06,-350.8 50.94,-27.5 110.38,-35 172.78,-35 37.75,0 76.55,2.8 115.25,5.5 38.7,2.8 77.2,5.5 114.4,5.5 32.5,0 64,-2.1 93.6,-8.2 124.8,-25.5 245.8,-118.4 240.7,-222.2 -0.5,-10.8 -2.4,-21.8 -5.9,-32.9 -68.8,-220.6 -478.1,-126.9 -666.91,-174.8 -68.22,-17.3 -149.32,-54.8 -141.98,-114.9 7.6,-62.2 99.49,-82.8 171.33,-96.5 86.27,-16.4 169.46,-44.5 245.46,-82.8 86.4,-43.5 171.4,-117.3 154.1,-201.3 -18.2,-88 -134.8,-131.3 -236.8,-152.8 -395.19,-83.3 -834.4,-101.8 -1269.93,-101.8"
         style="fill:#e7e7e7;fill-opacity:1;fill-rule:nonzero;stroke:none"
         id="path14" />
      <path
         d="m 4531.7,1642.4 v -103.9 l 207.69,-103.8 103.84,103.8 -103.84,103.9 -207.69,103.8 v -103.8"
         style="fill:#a16652;fill-opacity:1;fill-rule:nonzero;stroke:none"
         id="path16" />
      <path
         d="M 4628.52,4409.11 4205.99,1518.1 h -192.05 l -121.3,1576.93 -262.82,1576.89 998.7,-262.81"
         style="fill:#2e4661;fill-opacity:1;fill-rule:nonzero;stroke:none"
         id="path18" />
      <path
         d="m 4208.02,4777.05 v -315.38 l 420.5,-1366.64 -105.13,-1419.23 205.99,-41.2 477.33,1723.25 -16.08,510.34 -194.16,1040.83 -788.45,-131.97"
         style="fill:#2e4661;fill-opacity:1;fill-rule:nonzero;stroke:none"
         id="path20" />
      <path
         d="m 4012.48,1538.5 v -103.8 l 207.69,-103.9 103.84,103.9 -103.84,103.8 h -207.69"
         style="fill:#a16652;fill-opacity:1;fill-rule:nonzero;stroke:none"
         id="path22" />
      <path
         d="m 4713.8,6719.39 367.94,-946.15 367.95,-1734.58 -1716.02,-375.77 -226.31,324.21 -2.51,2206.65 473.07,630.76 735.88,-105.12"
         style="fill:#a16652;fill-opacity:1;fill-rule:nonzero;stroke:none"
         id="path24" />
      <path
         d="m 4135.61,6903.92 -52.56,-157.69 420.5,-105.13 52.56,262.82 h -420.5"
         style="fill:#a16652;fill-opacity:1;fill-rule:nonzero;stroke:none"
         id="path26" />
      <path
         d="m 5173.19,6254.81 293.81,341.68 201.82,-133.92 -355.77,-367.65 -139.86,159.89"
         style="fill:#27342a;fill-opacity:1;fill-rule:nonzero;stroke:none"
         id="path28" />
      <path
         d="m 5200.49,6257.89 272.56,297.63 150.6,-99.85 -305.58,-324.42 -117.58,126.64"
         style="fill:#fcfbf1;fill-opacity:1;fill-rule:nonzero;stroke:none"
         id="path30" />
      <path
         d="m 5300.3,5874.16 c 35.77,59.89 75.04,73.62 112.56,110.43 26.26,25.77 76.75,233.07 30.11,245.62 -10.94,-5.86 -10.23,-21.4 -14.51,-33.05 -5.09,-13.83 -18.5,-23.11 -32.49,-27.71 -13.99,-4.6 -28.9,-5.38 -43.47,-7.58 -62.95,-9.51 -140.36,-126.87 -138.87,-190.22 62.47,-48.64 24.19,-48.86 86.67,-97.49"
         style="fill:#eacdb0;fill-opacity:1;fill-rule:nonzero;stroke:none"
         id="path32" />
      <path
         d="m 4849.53,5428.24 525.81,519.54 -147.96,75.75 -410.6,-181.94 -572.2,441.58 c 0,0 -515.52,-70.69 -202.21,-440.4 l 807.16,-414.53"
         style="fill:#a86d5c;fill-opacity:1;fill-rule:nonzero;stroke:none"
         id="path34" />
      <path
         d="m 4082.58,6976.31 c -23.66,40.35 -30.06,88.93 -26.7,135.58 7.22,100.09 63.53,200.07 155.15,240.98 140.92,62.93 309.92,-25.64 457.72,18.77 16.98,-58.36 33.63,-117.68 34.48,-178.46 1.81,-129.73 -75.42,-257.41 -191.17,-316.03 -115.75,-58.61 -264.38,-45.32 -367.89,32.91 -24.2,18.3 -46.24,40.07 -61.59,66.25"
         style="fill:#f2e7da;fill-opacity:1;fill-rule:nonzero;stroke:none"
         id="path36" />
      <path
         d="m 4636.32,7371.64 -495.45,-55.91 -29.12,-405.67 -167.58,79.82 -71.38,643.9 699.52,121.35 381.56,-235.55 -231.66,-247.66 -85.89,99.72"
         style="fill:#59595b;fill-opacity:1;fill-rule:nonzero;stroke:none"
         id="path38" />
      <path
         d="m 3818.85,3537.74 -12.57,75.45 -8.29,49.7 612.6,140.43 31.43,-102.16 -623.17,-163.42"
         style="fill:#2c3b4d;fill-opacity:1;fill-rule:nonzero;stroke:none"
         id="path40" />
      <path
         d="m 4442.02,3701.16 -31.43,102.16 759.65,174.15 v 0 l 10.16,-82.68 -738.38,-193.63"
         style="fill:#2c3b4d;fill-opacity:1;fill-rule:nonzero;stroke:none"
         id="path42" />
      <path
         d="m 7804.55,4651.13 v -287.31 l -383.09,-1245.01 95.78,-1292.91 -239.43,-47.9 -383.08,1580.23 14.65,464.92 176.89,948.21 718.28,-120.23"
         style="fill:#2e4661;fill-opacity:1;fill-rule:nonzero;stroke:none"
         id="path44" />
      <path
         d="M 7500.66,4310.95 7885.59,1677.3 h 174.96 l 110.5,1436.52 239.43,1436.55 -909.82,-239.42"
         style="fill:#2e4661;fill-opacity:1;fill-rule:nonzero;stroke:none"
         id="path46" />
      <path
         d="m 7317.45,1745.2 -182.77,-193.5 52.79,-98 377.13,181 -69.46,143.3 -177.69,-32.8"
         style="fill:#363636;fill-opacity:1;fill-rule:nonzero;stroke:none"
         id="path48" />
      <path
         d="m 7888.83,1615.9 -225.3,-141.7 26.63,-108.1 410.39,81 -31.46,156.2 -180.26,12.6"
         style="fill:#363636;fill-opacity:1;fill-rule:nonzero;stroke:none"
         id="path50" />
      <path
         d="m 6531.35,6440.49 -134.36,147.66 56.64,64.02 113,-79.38 13.62,43.54 100.55,-141.3 -50.47,-75.03 -98.98,40.49"
         style="fill:#ebceb1;fill-opacity:1;fill-rule:nonzero;stroke:none"
         id="path52" />
      <path
         d="m 7693.55,6832.44 -341.57,-642.54 -712.06,380.56 -80.13,-162.35 815.96,-700.44 776.22,817.88 -458.42,306.89"
         style="fill:#b1cfdf;fill-opacity:1;fill-rule:nonzero;stroke:none"
         id="path54" />
      <path
         d="m 7341.55,7447.02 c 155.18,-11.41 300.28,116.02 453,84.39 99.31,-20.57 177.71,-108.65 208.01,-207.92 14.13,-46.27 19.13,-96.69 5.3,-142.7 -8.96,-29.86 -25.51,-56.78 -44.99,-80.69 -26.04,-31.97 -57.9,-58.53 -93.25,-78.93 19.41,-31.3 41.67,-60.85 66.42,-88.13 -71.57,-27.41 -143.13,-54.82 -214.7,-82.22 -15.81,41.12 -31.62,82.24 -47.44,123.36 -21.53,1.2 -42.97,4.26 -63.98,9.71 -127.06,32.98 -232.4,144.25 -260.74,275.45 -13.27,61.46 -10.72,125.02 -7.63,187.68"
         style="fill:#ebceb1;fill-opacity:1;fill-rule:nonzero;stroke:none"
         id="path56" />
      <path
         d="m 7380.73,7400.21 479.83,57.01 93.12,-366.52 135.5,107.53 -69.82,599.72 -677.16,14.58 -293.21,-172 12.41,-172.37 262.17,-176.48 57.16,108.53"
         style="fill:#4e4e4e;fill-opacity:1;fill-rule:nonzero;stroke:none"
         id="path58" />
      <path
         d="m 7566.98,6794.07 569.91,226.09 c 0,0 473.31,-551.42 703.56,-1357.31 230.25,-805.89 -281.43,-1936.2 -281.43,-1936.2 0,0 -1589.21,324.42 -1849.93,375.6 l 514.35,1611.76 343.54,1080.06"
         style="fill:#b1cfdf;fill-opacity:1;fill-rule:nonzero;stroke:none"
         id="path60" />
      <path
         d="m 6485.99,5640.96 -205.6,9.27 0.14,88.04 142.19,24.83 -19.26,41.67 174.97,-29.38 12.2,-91.53 -104.64,-42.9"
         style="fill:#ebceb1;fill-opacity:1;fill-rule:nonzero;stroke:none"
         id="path62" />
      <path
         d="m 7773.95,6722.67 -347.56,-725.76 -903.88,-191.7 33.53,-180.41 1117.31,-10.18 624.86,792.38 -524.26,315.67"
         style="fill:#b1cfdf;fill-opacity:1;fill-rule:nonzero;stroke:none"
         id="path64" />
      <path
         d="m 6431.44,7119.02 224.6,-488.32 -245.47,-152.34 -221.99,568.41 242.86,72.25"
         style="fill:#27342a;fill-opacity:1;fill-rule:nonzero;stroke:none"
         id="path66" />
      <path
         d="m 6421.21,7087.89 187.38,-443.39 -183.07,-113.72 -200.03,492.5 195.72,64.61"
         style="fill:#fcfbf1;fill-opacity:1;fill-rule:nonzero;stroke:none"
         id="path68" />
      <path
         d="M 4970,8335.42 H 3380 c -165.68,0 -300,134.31 -300,300 v 1589.98 c 0,165.7 134.32,300 300,300 h 1590 c 165.68,0 300,-134.3 300,-300 V 8635.42 c 0,-165.69 -134.32,-300 -300,-300"
         style="fill:#f2d042;fill-opacity:1;fill-rule:nonzero;stroke:none"
         id="path70" />
      <path
         d="m 11590,7055.42 h -1590 c -165.68,0 -300,134.31 -300,300 v 1590 c 0,165.68 134.32,300 300,300 h 1590 c 165.7,0 300,-134.32 300,-300 v -1590 c 0,-165.69 -134.3,-300 -300,-300"
         style="fill:#cbccce;fill-opacity:1;fill-rule:nonzero;stroke:none"
         id="path72" />
      <path
         d="M 2290,7285.42 H 1160 c -165.684,0 -300,134.31 -300,300 v 1130 c 0,165.68 134.316,300 300,300 h 1130 c 165.68,0 300,-134.32 300,-300 v -1130 c 0,-165.69 -134.32,-300 -300,-300"
         style="fill:#aeccdc;fill-opacity:1;fill-rule:nonzero;stroke:none"
         id="path74" />
      <path
         d="M 8040,8795.42 H 6910 c -165.68,0 -300,134.31 -300,300 v 1129.98 c 0,165.7 134.32,300 300,300 h 1130 c 165.68,0 300,-134.3 300,-300 V 9095.42 c 0,-165.69 -134.32,-300 -300,-300"
         style="fill:#e79c3f;fill-opacity:1;fill-rule:nonzero;stroke:none"
         id="path76" />
      <path
         d="m 2290,10175.4 h -780 c -165.68,0 -300,134.3 -300,300 v 780 c 0,165.7 134.32,300 300,300 h 780 c 165.68,0 300,-134.3 300,-300 v -780 c 0,-165.7 -134.32,-300 -300,-300"
         style="fill:#cbccce;fill-opacity:1;fill-rule:nonzero;stroke:none"
         id="path78" />
      <path
         d="m 9780,10475.4 h -780 c -165.68,0 -300,134.3 -300,300 v 780 c 0,165.7 134.32,300 300,300 h 780 c 165.68,0 300,-134.3 300,-300 v -780 c 0,-165.7 -134.32,-300 -300,-300"
         style="fill:#83a296;fill-opacity:1;fill-rule:nonzero;stroke:none"
         id="path80" />
      <path
         d="m 4324.94,8813.06 c 70.97,75.66 128.53,161.95 170.81,255.18 51.23,-20.18 100.67,-45.24 147.74,-75 -85.81,-87.31 -195.58,-150.9 -318.55,-180.18 z m -625.07,180.12 c 47.07,29.74 96.5,54.82 147.75,75 42.29,-93.2 99.85,-179.49 170.81,-255.13 -122.97,29.26 -232.74,92.83 -318.56,180.13 z m 318.56,1107.52 c -70.96,-75.7 -128.52,-161.95 -170.81,-255.15 -51.25,20.18 -100.68,45.26 -147.75,75 85.82,87.35 195.59,150.85 318.56,180.15 z m 625.06,-180.22 c -47.13,-29.79 -96.63,-54.87 -147.93,-75.06 -42.29,93.23 -99.71,179.68 -170.57,255.28 122.95,-29.3 232.7,-92.9 318.5,-180.22 z m -64.14,-435.47 c -3.21,106.4 -24.48,210.65 -62.01,308.49 57.15,22.59 112.13,50.98 164.37,84.76 89.21,-107.8 144.87,-244.24 151.14,-393.25 z m 0,-56.29 h 253.5 c -6.27,-149.01 -61.93,-285.46 -151.14,-393.25 -52.22,33.76 -107.18,62.15 -164.3,84.74 37.47,97.74 58.75,201.92 61.94,308.51 z m -379.56,-243.5 v 243.5 h 323.22 c -3.18,-100.05 -23.29,-197.83 -58.6,-289.54 -84.94,27.78 -173.84,43.37 -264.62,46.04 z m -379.45,243.5 h 323.16 v -243.5 c -90.71,-2.67 -179.61,-18.27 -264.55,-46.05 -35.31,91.72 -55.42,189.5 -58.61,289.55 z m -56.34,0 c 3.19,-106.62 24.48,-210.81 61.96,-308.57 -57.14,-22.59 -112.13,-50.94 -164.36,-84.7 -89.21,107.79 -144.88,244.25 -151.16,393.27 z m 0,56.29 h -253.56 c 6.28,149.02 61.95,285.47 151.16,393.27 52.22,-33.76 107.22,-62.11 164.36,-84.7 -37.48,-97.75 -58.77,-201.96 -61.96,-308.57 z m 379.5,243.5 v -243.5 h -323.16 c 3.19,100.05 23.3,197.83 58.61,289.55 84.94,-27.78 173.84,-43.39 264.55,-46.05 z m 56.29,0 c 90.75,2.67 179.62,18.26 264.53,46.01 35.36,-91.81 55.49,-189.64 58.69,-289.51 h -323.22 z m 242.51,98.03 c -77.93,-25.01 -159.38,-39.14 -242.51,-41.74 v 333.3 c 11.58,-0.5 23.09,-1.3 34.51,-2.4 l -2.3,-2.5 c 89.65,-81.1 160.74,-178.96 210.3,-286.66 z m -327.53,289.66 c 9.53,0.8 19.09,1.5 28.73,1.9 v -333.3 c -83.12,2.6 -164.6,16.77 -242.58,41.81 50.15,108.98 122.49,207.79 213.85,289.59 z M 3900.92,9087.12 c 77.98,25.04 159.46,39.21 242.58,41.81 v -333.27 c -9.64,0.41 -19.2,1.08 -28.73,1.89 -91.36,81.78 -163.7,180.59 -213.85,289.57 z m 327.66,-289.56 c -9.54,-0.82 -19.13,-1.49 -28.79,-1.9 v 333.27 c 83.18,-2.6 164.68,-16.75 242.66,-41.79 -50.16,-108.99 -122.5,-207.8 -213.87,-289.58 z m -56.93,1377.54 c -396.02,0 -718.22,-322.21 -718.22,-718.23 0,-396.03 322.2,-718.22 718.22,-718.22 396.02,0 718.21,322.19 718.21,718.22 0,396.02 -322.19,718.23 -718.21,718.23"
         style="fill:#3a6594;fill-opacity:1;fill-rule:nonzero;stroke:none"
         id="path82" />
      <path
         d="m 7491.3,10222 169.21,-342.87 c 1.85,-3.77 5.46,-6.38 9.61,-6.99 l 378.36,-54.97 c 10.48,-1.53 14.65,-14.4 7.08,-21.79 l -273.78,-266.87 c -3.01,-2.93 -4.39,-7.16 -3.67,-11.31 l 64.62,-376.82 c 1.79,-10.44 -9.16,-18.39 -18.53,-13.47 l -338.41,177.91 c -3.72,1.96 -8.17,1.96 -11.88,0 l -338.42,-177.91 c -9.37,-4.92 -20.32,3.03 -18.54,13.47 l 64.64,376.82 c 0.7,4.15 -0.66,8.38 -3.68,11.31 l -273.78,266.87 c -7.58,7.39 -3.4,20.26 7.08,21.79 l 378.36,54.97 c 4.16,0.61 7.75,3.22 9.62,6.99 l 169.2,342.87 c 4.69,9.5 18.22,9.5 22.91,0"
         style="fill:#f2d042;fill-opacity:1;fill-rule:nonzero;stroke:none"
         id="path84" />
      <path
         d="m 9311.62,11247.1 c 56.92,0 113.82,0 170.73,0 -6.15,-55.2 -12.29,-110.4 -18.44,-165.7 -56.89,0 -113.76,0 -170.64,-0.1 6.11,55.3 12.23,110.5 18.35,165.8 z m 524.55,100.2 c 0.52,4.6 -4.24,8.5 -8.46,8.5 -74.69,0 -149.38,-0.1 -224.07,-0.2 8.31,75 16.61,150 24.91,225 0.51,4.6 -4.22,8.6 -8.46,8.5 -34.8,-0.6 -69.59,-1.2 -104.39,-1.8 -5.01,-0.1 -7.95,-3.9 -8.46,-8.5 -8.29,-74.4 -16.59,-148.8 -24.88,-223.2 -48.89,-0.1 -97.8,-0.1 -146.71,-0.1 8.47,76.4 16.94,152.9 25.4,229.4 0.51,4.5 -4.22,8.5 -8.45,8.5 -34.81,-0.6 -69.6,-1.3 -104.4,-1.9 -5,-0.1 -7.95,-3.8 -8.46,-8.4 -8.46,-75.9 -16.92,-151.8 -25.36,-227.7 -73.74,-0.1 -147.48,-0.1 -221.21,-0.2 -5.07,0 -7.85,-3.9 -8.45,-8.4 -4.61,-34.3 -9.21,-68.6 -13.81,-102.9 -0.62,-4.6 4.31,-8.5 8.47,-8.5 73.87,0 147.75,0 221.63,0 -5.3,-47.5 -10.58,-95 -15.87,-142.4 -74.57,-0.1 -149.14,-0.1 -223.72,-0.2 -5.08,0 -7.86,-3.9 -8.46,-8.4 -4.61,-34.3 -9.21,-68.6 -13.81,-103 -0.61,-4.5 4.32,-8.4 8.46,-8.4 74.72,0 149.44,0 224.16,0 -8.33,-74.8 -16.67,-149.7 -25,-224.5 -0.52,-4.6 4.24,-8.4 8.45,-8.4 34.92,-0.2 69.82,-0.3 104.73,-0.4 4.99,0 7.96,3.9 8.46,8.5 8.3,74.9 16.6,149.8 24.89,224.8 48.82,0 97.63,0 146.45,0 -8.5,-76.3 -17,-152.5 -25.49,-228.7 -0.51,-4.6 4.24,-8.5 8.46,-8.5 34.92,-0.1 69.82,-0.3 104.73,-0.4 4.99,0 7.96,3.9 8.46,8.5 8.46,76.3 16.91,152.7 25.37,229.1 74.33,0 148.66,0 222.99,0 5.01,0 7.95,3.9 8.46,8.4 3.9,34.5 7.79,69 11.68,103.5 0.52,4.6 -4.24,8.5 -8.46,8.5 -73.79,-0.1 -147.57,-0.1 -221.36,-0.2 5.25,47.4 10.5,94.8 15.74,142.2 75.24,0 150.47,0 225.7,0 4.45,0 7.06,2.8 7.88,6.2 l 0.58,2.3 c 3.9,34.4 7.79,68.9 11.68,103.4"
         style="fill:#564a70;fill-opacity:1;fill-rule:nonzero;stroke:none"
         id="path86" />
      <path
         d="m 11389,7877.05 c -96,0 -179.1,-56.49 -217.7,-137.98 l -520.2,70.52 c -4.1,94.43 -46.1,179.16 -111.2,239.32 l 294,425.02 c 34.5,-14.65 72.4,-22.76 112.1,-22.76 158.3,0 287.1,128.8 287.1,287.12 0,158.32 -128.8,287.13 -287.1,287.13 -158.4,0 -287.2,-128.81 -287.2,-287.13 0,-67.76 23.7,-130.1 63.1,-179.26 l -302.7,-437.46 c -35.8,12.54 -74.2,19.37 -114.3,19.37 -191,0 -346.49,-155.45 -346.49,-346.53 0,-191.08 155.49,-346.54 346.49,-346.54 145.9,0 270.9,90.56 322,218.39 l 524.8,-71.15 c 19.6,-113.25 118.5,-199.67 237.3,-199.67 132.8,0 240.8,108.03 240.8,240.81 0,132.77 -108,240.8 -240.8,240.8"
         style="fill:#3a6594;fill-opacity:1;fill-rule:nonzero;stroke:none"
         id="path88" />
      <path
         d="M 2284.46,8494.25 H 1134.02 l 575.22,-358.63 z"
         style="fill:#fbf2d1;fill-opacity:1;fill-rule:nonzero;stroke:none"
         id="path90" />
      <path
         d="M 1096.18,8470.65 V 7729.8 h 1078.43 c 81.57,0 147.69,70.67 147.69,157.86 v 582.99 l -613.06,-382.22 -613.06,382.22"
         style="fill:#fbf2d1;fill-opacity:1;fill-rule:nonzero;stroke:none"
         id="path92" />
      <path
         d="m 2124.61,8488.85 c 0,109.18 88.52,197.69 197.69,197.69 109.19,0 197.7,-88.51 197.7,-197.69 0,-109.18 -88.51,-197.69 -197.7,-197.69 -109.17,0 -197.69,88.51 -197.69,197.69"
         style="fill:#a06652;fill-opacity:1;fill-rule:nonzero;stroke:none"
         id="path94" />
      <path
         d="m 2307.05,8400.88 v 130.72 h -28.71 v 37.72 h 70.7 v -168.44 h -41.99"
         style="fill:#ffffff;fill-opacity:1;fill-rule:nonzero;stroke:none"
         id="path96" />
      <path
         d="m 2152.77,11434.6 c 0,-139.7 -115.65,-252.9 -258.31,-252.9 h -5.21 c -142.66,0 -258.31,113.2 -258.31,252.9 v 5.1 c 0,139.7 115.65,252.9 258.31,252.9 h 5.21 c 142.66,0 258.31,-113.2 258.31,-252.9 z m -270.62,460.8 c -282.53,0 -539.13,-334.7 -427.98,-606.3 91.42,-223.5 200.2,-441.8 312.78,-655.2 14.4,-27.3 99.6,-202.6 124.92,-202.6 22.73,0 67.09,105.1 75.79,120.9 50.25,91.4 97.65,184.4 144.47,277.6 51.1,101.7 101.2,203.9 149.29,307.1 84.24,180.8 133.24,317.7 27.72,508.8 -81.68,148 -235.88,249.7 -406.99,249.7"
         style="fill:#a06652;fill-opacity:1;fill-rule:nonzero;stroke:none"
         id="path98" />
      <path
         d="m 2152.77,11434.6 c 0,-139.7 -115.65,-252.9 -258.31,-252.9 h -5.21 c -142.66,0 -258.31,113.2 -258.31,252.9 v 5.1 c 0,139.7 115.65,252.9 258.31,252.9 h 5.21 c 142.66,0 258.31,-113.2 258.31,-252.9 v -5.1"
         style="fill:#ffffff;fill-opacity:1;fill-rule:nonzero;stroke:none"
         id="path100" />
      <path
         d="m 1890.05,10046.2 c -20.42,0 -36.97,16.6 -36.97,37 0,20.4 16.55,37 36.97,37 20.43,0 36.99,-16.6 36.99,-37 0,-20.4 -16.56,-37 -36.99,-37"
         style="fill:#3a6594;fill-opacity:1;fill-rule:nonzero;stroke:none"
         id="path102" />
      <path
         d="m 1890.05,9864.68 c -20.42,0 -36.97,16.56 -36.97,36.99 0,20.41 16.55,36.97 36.97,36.97 20.43,0 36.99,-16.56 36.99,-36.97 0,-20.43 -16.56,-36.99 -36.99,-36.99"
         style="fill:#3a6594;fill-opacity:1;fill-rule:nonzero;stroke:none"
         id="path104" />
      <path
         d="m 1890.05,9683.14 c -20.42,0 -36.97,16.56 -36.97,36.99 0,20.42 16.55,36.97 36.97,36.97 20.43,0 36.99,-16.55 36.99,-36.97 0,-20.43 -16.56,-36.99 -36.99,-36.99"
         style="fill:#3a6594;fill-opacity:1;fill-rule:nonzero;stroke:none"
         id="path106" />
      <path
         d="m 1890.05,9501.61 c -20.42,0 -36.97,16.55 -36.97,36.98 0,20.42 16.55,36.98 36.97,36.98 20.43,0 36.99,-16.56 36.99,-36.98 0,-20.43 -16.56,-36.98 -36.99,-36.98"
         style="fill:#3a6594;fill-opacity:1;fill-rule:nonzero;stroke:none"
         id="path108" />
      <path
         d="m 1890.05,9320.07 c -20.42,0 -36.97,16.56 -36.97,36.98 0,20.42 16.55,36.98 36.97,36.98 20.43,0 36.99,-16.56 36.99,-36.98 0,-20.42 -16.56,-36.98 -36.99,-36.98"
         style="fill:#3a6594;fill-opacity:1;fill-rule:nonzero;stroke:none"
         id="path110" />
      <path
         d="m 1890.05,9138.53 c -20.42,0 -36.97,16.56 -36.97,36.98 0,20.42 16.55,36.98 36.97,36.98 20.43,0 36.99,-16.56 36.99,-36.98 0,-20.42 -16.56,-36.98 -36.99,-36.98"
         style="fill:#3a6594;fill-opacity:1;fill-rule:nonzero;stroke:none"
         id="path112" />
      <path
         d="m 2916.92,9539.36 c 0,20.42 16.56,36.98 36.98,36.98 20.42,0 36.98,-16.56 36.98,-36.98 0,-20.43 -16.56,-36.98 -36.98,-36.98 -20.42,0 -36.98,16.55 -36.98,36.98"
         style="fill:#3a6594;fill-opacity:1;fill-rule:nonzero;stroke:none"
         id="path114" />
      <path
         d="m 2735.38,9539.36 c 0,20.42 16.56,36.98 36.98,36.98 20.42,0 36.98,-16.56 36.98,-36.98 0,-20.43 -16.56,-36.98 -36.98,-36.98 -20.42,0 -36.98,16.55 -36.98,36.98"
         style="fill:#3a6594;fill-opacity:1;fill-rule:nonzero;stroke:none"
         id="path116" />
      <path
         d="m 2553.84,9539.36 c 0,20.42 16.56,36.98 36.99,36.98 20.42,0 36.97,-16.56 36.97,-36.98 0,-20.43 -16.55,-36.98 -36.97,-36.98 -20.43,0 -36.99,16.55 -36.99,36.98"
         style="fill:#3a6594;fill-opacity:1;fill-rule:nonzero;stroke:none"
         id="path118" />
      <path
         d="m 2372.3,9539.36 c 0,20.42 16.56,36.98 36.99,36.98 20.42,0 36.97,-16.56 36.97,-36.98 0,-20.43 -16.55,-36.98 -36.97,-36.98 -20.43,0 -36.99,16.55 -36.99,36.98"
         style="fill:#3a6594;fill-opacity:1;fill-rule:nonzero;stroke:none"
         id="path120" />
      <path
         d="m 2190.77,9539.36 c 0,20.42 16.55,36.98 36.98,36.98 20.42,0 36.98,-16.56 36.98,-36.98 0,-20.43 -16.56,-36.98 -36.98,-36.98 -20.43,0 -36.98,16.55 -36.98,36.98"
         style="fill:#3a6594;fill-opacity:1;fill-rule:nonzero;stroke:none"
         id="path122" />
      <path
         d="m 2009.23,9539.36 c 0,20.42 16.56,36.98 36.98,36.98 20.42,0 36.98,-16.56 36.98,-36.98 0,-20.43 -16.56,-36.98 -36.98,-36.98 -20.42,0 -36.98,16.55 -36.98,36.98"
         style="fill:#3a6594;fill-opacity:1;fill-rule:nonzero;stroke:none"
         id="path124" />
      <path
         d="m 6266.92,9539.36 c 0,20.42 16.56,36.98 36.98,36.98 20.42,0 36.98,-16.56 36.98,-36.98 0,-20.43 -16.56,-36.98 -36.98,-36.98 -20.42,0 -36.98,16.55 -36.98,36.98"
         style="fill:#3a6594;fill-opacity:1;fill-rule:nonzero;stroke:none"
         id="path126" />
      <path
         d="m 6085.38,9539.36 c 0,20.42 16.56,36.98 36.98,36.98 20.42,0 36.98,-16.56 36.98,-36.98 0,-20.43 -16.56,-36.98 -36.98,-36.98 -20.42,0 -36.98,16.55 -36.98,36.98"
         style="fill:#3a6594;fill-opacity:1;fill-rule:nonzero;stroke:none"
         id="path128" />
      <path
         d="m 6446.92,9539.36 c 0,20.42 16.56,36.98 36.98,36.98 20.43,0 36.98,-16.56 36.98,-36.98 0,-20.43 -16.55,-36.98 -36.98,-36.98 -20.42,0 -36.98,16.55 -36.98,36.98"
         style="fill:#3a6594;fill-opacity:1;fill-rule:nonzero;stroke:none"
         id="path130" />
      <path
         d="m 5903.84,9539.36 c 0,20.42 16.56,36.98 36.99,36.98 20.42,0 36.97,-16.56 36.97,-36.98 0,-20.43 -16.55,-36.98 -36.97,-36.98 -20.43,0 -36.99,16.55 -36.99,36.98"
         style="fill:#3a6594;fill-opacity:1;fill-rule:nonzero;stroke:none"
         id="path132" />
      <path
         d="m 5722.3,9539.36 c 0,20.42 16.56,36.98 36.99,36.98 20.42,0 36.97,-16.56 36.97,-36.98 0,-20.43 -16.55,-36.98 -36.97,-36.98 -20.43,0 -36.99,16.55 -36.99,36.98"
         style="fill:#3a6594;fill-opacity:1;fill-rule:nonzero;stroke:none"
         id="path134" />
      <path
         d="m 5540.77,9539.36 c 0,20.42 16.55,36.98 36.98,36.98 20.42,0 36.98,-16.56 36.98,-36.98 0,-20.43 -16.56,-36.98 -36.98,-36.98 -20.43,0 -36.98,16.55 -36.98,36.98"
         style="fill:#3a6594;fill-opacity:1;fill-rule:nonzero;stroke:none"
         id="path136" />
      <path
         d="m 5359.23,9539.36 c 0,20.42 16.56,36.98 36.98,36.98 20.42,0 36.98,-16.56 36.98,-36.98 0,-20.43 -16.56,-36.98 -36.98,-36.98 -20.42,0 -36.98,16.55 -36.98,36.98"
         style="fill:#3a6594;fill-opacity:1;fill-rule:nonzero;stroke:none"
         id="path138" />
      <path
         d="m 9336.92,9539.36 c 0,20.42 16.56,36.98 36.98,36.98 20.43,0 36.98,-16.56 36.98,-36.98 0,-20.43 -16.55,-36.98 -36.98,-36.98 -20.42,0 -36.98,16.55 -36.98,36.98"
         style="fill:#3a6594;fill-opacity:1;fill-rule:nonzero;stroke:none"
         id="path140" />
      <path
         d="m 9155.38,9539.36 c 0,20.42 16.55,36.98 36.98,36.98 20.42,0 36.99,-16.56 36.99,-36.98 0,-20.43 -16.57,-36.98 -36.99,-36.98 -20.43,0 -36.98,16.55 -36.98,36.98"
         style="fill:#3a6594;fill-opacity:1;fill-rule:nonzero;stroke:none"
         id="path142" />
      <path
         d="m 8973.85,9539.36 c 0,20.42 16.55,36.98 36.97,36.98 20.43,0 36.98,-16.56 36.98,-36.98 0,-20.43 -16.55,-36.98 -36.98,-36.98 -20.42,0 -36.97,16.55 -36.97,36.98"
         style="fill:#3a6594;fill-opacity:1;fill-rule:nonzero;stroke:none"
         id="path144" />
      <path
         d="m 9372.36,9754.8 c 20.42,0 36.99,-16.56 36.99,-36.98 0,-20.43 -16.57,-36.98 -36.99,-36.98 -20.43,0 -36.98,16.55 -36.98,36.98 0,20.42 16.55,36.98 36.98,36.98"
         style="fill:#3a6594;fill-opacity:1;fill-rule:nonzero;stroke:none"
         id="path146" />
      <path
         d="m 9372.36,9934.8 c 20.42,0 36.99,-16.56 36.99,-36.98 0,-20.43 -16.57,-36.98 -36.99,-36.98 -20.43,0 -36.98,16.55 -36.98,36.98 0,20.42 16.55,36.98 36.98,36.98"
         style="fill:#3a6594;fill-opacity:1;fill-rule:nonzero;stroke:none"
         id="path148" />
      <path
         d="m 9372.36,10114.8 c 20.42,0 36.99,-16.6 36.99,-37 0,-20.4 -16.57,-37 -36.99,-37 -20.43,0 -36.98,16.6 -36.98,37 0,20.4 16.55,37 36.98,37"
         style="fill:#3a6594;fill-opacity:1;fill-rule:nonzero;stroke:none"
         id="path150" />
      <path
         d="m 9372.36,10294.8 c 20.42,0 36.99,-16.6 36.99,-37 0,-20.4 -16.57,-37 -36.99,-37 -20.43,0 -36.98,16.6 -36.98,37 0,20.4 16.55,37 36.98,37"
         style="fill:#3a6594;fill-opacity:1;fill-rule:nonzero;stroke:none"
         id="path152" />
      <path
         d="m 9336.92,8999.36 c 0,20.42 16.56,36.98 36.98,36.98 20.43,0 36.98,-16.56 36.98,-36.98 0,-20.43 -16.55,-36.98 -36.98,-36.98 -20.42,0 -36.98,16.55 -36.98,36.98"
         style="fill:#3a6594;fill-opacity:1;fill-rule:nonzero;stroke:none"
         id="path154" />
      <path
         d="m 9372.36,9214.8 c 20.42,0 36.99,-16.56 36.99,-36.98 0,-20.43 -16.57,-36.98 -36.99,-36.98 -20.43,0 -36.98,16.55 -36.98,36.98 0,20.42 16.55,36.98 36.98,36.98"
         style="fill:#3a6594;fill-opacity:1;fill-rule:nonzero;stroke:none"
         id="path156" />
      <path
         d="m 9372.36,9396.34 c 20.42,0 36.99,-16.56 36.99,-36.98 0,-20.43 -16.57,-36.98 -36.99,-36.98 -20.43,0 -36.98,16.55 -36.98,36.98 0,20.42 16.55,36.98 36.98,36.98"
         style="fill:#3a6594;fill-opacity:1;fill-rule:nonzero;stroke:none"
         id="path158" />
      <path
         d="m 9336.92,8819.36 c 0,20.42 16.56,36.98 36.98,36.98 20.43,0 36.98,-16.56 36.98,-36.98 0,-20.43 -16.55,-36.98 -36.98,-36.98 -20.42,0 -36.98,16.55 -36.98,36.98"
         style="fill:#3a6594;fill-opacity:1;fill-rule:nonzero;stroke:none"
         id="path160" />
      <path
         d="m 9336.92,8279.36 c 0,20.42 16.56,36.98 36.98,36.98 20.43,0 36.98,-16.56 36.98,-36.98 0,-20.43 -16.55,-36.98 -36.98,-36.98 -20.42,0 -36.98,16.55 -36.98,36.98"
         style="fill:#3a6594;fill-opacity:1;fill-rule:nonzero;stroke:none"
         id="path162" />
      <path
         d="m 9372.36,8494.8 c 20.42,0 36.99,-16.56 36.99,-36.98 0,-20.43 -16.57,-36.98 -36.99,-36.98 -20.43,0 -36.98,16.55 -36.98,36.98 0,20.42 16.55,36.98 36.98,36.98"
         style="fill:#3a6594;fill-opacity:1;fill-rule:nonzero;stroke:none"
         id="path164" />
      <path
         d="m 9372.36,8676.34 c 20.42,0 36.99,-16.56 36.99,-36.98 0,-20.43 -16.57,-36.98 -36.99,-36.98 -20.43,0 -36.98,16.55 -36.98,36.98 0,20.42 16.55,36.98 36.98,36.98"
         style="fill:#3a6594;fill-opacity:1;fill-rule:nonzero;stroke:none"
         id="path166" />
      <path
         d="m 9336.92,8099.36 c 0,20.42 16.56,36.98 36.98,36.98 20.43,0 36.98,-16.56 36.98,-36.98 0,-20.43 -16.55,-36.98 -36.98,-36.98 -20.42,0 -36.98,16.55 -36.98,36.98"
         style="fill:#3a6594;fill-opacity:1;fill-rule:nonzero;stroke:none"
         id="path168" />
      <path
         d="m 9552.36,8134.8 c 20.42,0 36.99,-16.56 36.99,-36.98 0,-20.43 -16.57,-36.98 -36.99,-36.98 -20.43,0 -36.98,16.55 -36.98,36.98 0,20.42 16.55,36.98 36.98,36.98"
         style="fill:#3a6594;fill-opacity:1;fill-rule:nonzero;stroke:none"
         id="path170" />
      <path
         d="m 8792.3,9539.36 c 0,20.42 16.56,36.98 36.99,36.98 20.42,0 36.98,-16.56 36.98,-36.98 0,-20.43 -16.56,-36.98 -36.98,-36.98 -20.43,0 -36.99,16.55 -36.99,36.98"
         style="fill:#3a6594;fill-opacity:1;fill-rule:nonzero;stroke:none"
         id="path172" />
      <path
         d="m 8610.77,9539.36 c 0,20.42 16.55,36.98 36.97,36.98 20.43,0 36.99,-16.56 36.99,-36.98 0,-20.43 -16.56,-36.98 -36.99,-36.98 -20.42,0 -36.97,16.55 -36.97,36.98"
         style="fill:#3a6594;fill-opacity:1;fill-rule:nonzero;stroke:none"
         id="path174" />
      <path
         d="m 8429.23,9539.36 c 0,20.42 16.55,36.98 36.98,36.98 20.42,0 36.97,-16.56 36.97,-36.98 0,-20.43 -16.55,-36.98 -36.97,-36.98 -20.43,0 -36.98,16.55 -36.98,36.98"
         style="fill:#3a6594;fill-opacity:1;fill-rule:nonzero;stroke:none"
         id="path176" />
    </g>
  </g>
</svg>
